:FULLY-SPECIFIED
:FORCE-ALL-JOINTS-BE-3DOF
:DEGREES
372
root 9.32837 17.0694 16.09 6.25753 4.03006 -2.99687
lfemur -35.0146 5.63412 -17.9012
ltibia 56.5208 0 0
lfoot -14.8141 11.8801 0
ltoes -3.03359 0 0
rfemur -13.3681 6.18376 28.9938
rtibia 29.3053 0 0
rfoot -19.1525 2.99819 0
rtoes -13.878 0 0
lowerback -5.7789 0.259423 0.0679038
upperback -0.728312 0.269505 2.75787
thorax 2.47761 0.124729 2.82664
lowerneck -19.9143 -6.2206 -12.5887
upperneck 21.3607 -8.07376 12.7327
head 11.3022 -3.21887 5.51353
lclavicle 1.90439e-15 8.09405e-15 0
lhumerus -46.6056 -18.2471 97.8203
lradius 28.4171 0 0
lwrist 12.3798 0 0
lhand -14.6719 -22.3511 0
lfingers 7.12502 0 0
lthumb 11.4812 7.31492 0
rclavicle 1.90439e-15 8.09405e-15 0
rhumerus -33.4073 18.2651 -84.0989
rradius 44.2115 0 0
rwrist -23.1986 0 0
rhand -31.0961 -23.9847 0
rfingers 7.12502 0 0
rthumb -4.37594 -53.9192 0
373
root 9.33553 17.0711 16.2112 6.20458 3.72204 -3.12444
lfemur -35.7151 5.4973 -17.8881
ltibia 55.1608 0 0
lfoot -14.928 11.8154 0
ltoes -3.24045 0 0
rfemur -12.5453 6.16655 29.1828
rtibia 28.751 0 0
rfoot -19.2392 3.15822 0
rtoes -14.1518 0 0
lowerback -5.76685 0.424179 0.180414
upperback -0.679561 0.480195 2.78835
thorax 2.51135 0.230361 2.81161
lowerneck -19.9861 -6.24637 -12.4559
upperneck 21.49 -8.1014 12.524
head 11.3516 -3.24089 5.4093
lclavicle -9.19379e-16 1.07344e-14 0
lhumerus -46.8679 -17.7878 97.599
lradius 28.256 0 0
lwrist 12.1942 0 0
lhand -14.627 -22.3701 0
lfingers 7.12502 0 0
lthumb 11.5245 7.29306 0
rclavicle -9.19379e-16 1.07344e-14 0
rhumerus -32.9454 18.3189 -83.9713
rradius 44.3713 0 0
rwrist -23.2521 0 0
rhand -31.2908 -23.7895 0
rfingers 7.12502 0 0
rthumb -4.56391 -53.7204 0
374
root 9.34151 17.0773 16.3375 6.12248 3.41662 -3.29018
lfemur -36.3452 5.37839 -17.8115
ltibia 53.7524 0 0
lfoot -15.0092 11.655 0
ltoes -4.15438 0 0
rfemur -11.6131 6.1568 29.4283
rtibia 28.0656 0 0
rfoot -19.2913 3.24233 0
rtoes -14.7353 0 0
lowerback -5.73953 0.577352 0.317008
upperback -0.618379 0.673392 2.83619
thorax 2.55114 0.327452 2.79938
lowerneck -20.0232 -6.2557 -12.4038
upperneck 21.5825 -8.10885 12.423
head 11.3868 -3.24969 5.36306
lclavicle -4.63313e-15 9.31806e-15 0
lhumerus -47.0637 -17.1976 97.2656
lradius 28.0643 0 0
lwrist 11.8415 0 0
lhand -14.4 -22.3826 0
lfingers 7.12502 0 0
lthumb 11.7433 7.26723 0
rclavicle -4.63313e-15 9.31806e-15 0
rhumerus -32.4897 18.3893 -83.867
rradius 44.4886 0 0
rwrist -23.2993 0 0
rhand -31.441 -23.9422 0
rfingers 7.12502 0 0
rthumb -4.70897 -53.8701 0
375
root 9.34748 17.0835 16.4637 6.01055 3.11127 -3.49462
lfemur -36.8992 5.27486 -17.6712
ltibia 52.2687 0 0
lfoot -15.0321 11.4104 0
ltoes -5.63936 0 0
rfemur -10.5779 6.14509 29.7283
rtibia 27.2595 0 0
rfoot -19.3128 3.26911 0
rtoes -15.583 0 0
lowerback -5.69548 0.723475 0.480279
upperback -0.544465 0.855054 2.90127
thorax 2.59618 0.418991 2.78865
lowerneck -20.0489 -6.25519 -12.4028
upperneck 21.6581 -8.10294 12.3875
head 11.4174 -3.24976 5.35282
lclavicle -9.40915e-15 4.99174e-15 0
lhumerus -47.1879 -16.4927 96.8357
lradius 27.8263 0 0
lwrist 11.3244 0 0
lhand -14.022 -22.3869 0
lfingers 7.12502 0 0
lthumb 12.1078 7.24069 0
rclavicle -9.40915e-15 4.99174e-15 0
rhumerus -32.036 18.4644 -83.7749
rradius 44.5691 0 0
rwrist -23.353 0 0
rhand -31.5701 -24.3632 0
rfingers 7.12502 0 0
rthumb -4.83361 -54.2883 0
376
root 9.35346 17.0897 16.59 5.88897 2.80737 -3.71456
lfemur -37.3952 5.176 -17.4943
ltibia 50.7202 0 0
lfoot -15.0132 11.1155 0
ltoes -7.43652 0 0
rfemur -9.48473 6.12949 30.0484
rtibia 26.3708 0 0
rfoot -19.2999 3.26764 0
rtoes -16.5561 0 0
lowerback -5.65068 0.864788 0.651963
upperback -0.465432 1.02938 2.9743
thorax 2.64696 0.506909 2.78097
lowerneck -20.0597 -6.24789 -12.4382
upperneck 21.7178 -8.08868 12.4001
head 11.4421 -3.24421 5.36841
lclavicle -1.44709e-14 -8.6965e-16 0
lhumerus -47.2743 -15.7333 96.3634
lradius 27.5633 0 0
lwrist 10.7237 0 0
lhand -13.5789 -22.3921 0
lfingers 7.12502 0 0
lthumb 12.5351 7.20957 0
rclavicle -1.44709e-14 -8.6965e-16 0
rhumerus -31.5898 18.5293 -83.6918
rradius 44.6184 0 0
rwrist -23.3983 0 0
rhand -31.6807 -24.9258 0
rfingers 7.12502 0 0
rthumb -4.94046 -54.8484 0
377
root 9.35944 17.0958 16.7163 5.77787 2.5063 -3.9268
lfemur -37.851 5.0711 -17.3076
ltibia 49.1173 0 0
lfoot -14.9694 10.8041 0
ltoes -9.28705 0 0
rfemur -8.37846 6.10804 30.3541
rtibia 25.4373 0 0
rfoot -19.2486 3.26698 0
rtoes -17.5162 0 0
lowerback -5.62112 1.00353 0.813795
upperback -0.388894 1.20058 3.04601
thorax 2.70396 0.593135 2.77789
lowerneck -20.0522 -6.23687 -12.4951
upperneck 21.7625 -8.07109 12.443
head 11.4597 -3.2362 5.39968
lclavicle -1.90419e-14 -6.89117e-15 0
lhumerus -47.3567 -14.9795 95.9028
lradius 27.2969 0 0
lwrist 10.12 0 0
lhand -13.1567 -22.4071 0
lfingers 7.12502 0 0
lthumb 12.942 7.16995 0
rclavicle -1.90419e-14 -6.89117e-15 0
rhumerus -31.1566 18.5688 -83.6147
rradius 44.6421 0 0
rwrist -23.4203 0 0
rhand -31.7757 -25.5033 0
rfingers 7.12502 0 0
rthumb -5.03218 -55.4236 0
